<svg xmlns="http://www.w3.org/2000/svg" version="1.1" xmlns:xlink="http://www.w3.org/1999/xlink" xmlns:svgjs="http://svgjs.dev/svgjs" width="1440" height="560" preserveAspectRatio="none" viewBox="0 0 1440 560"><g mask="url(&quot;#SvgjsMask1007&quot;)" fill="none"><rect width="1440" height="560" x="0" y="0" fill="rgba(84, 166, 255, 1)"></rect><path d="M1440 0L1117.6399999999999 0L1440 196.54z" fill="rgba(255, 255, 255, .1)"></path><path d="M1117.6399999999999 0L1440 196.54L1440 242.62L632.6199999999999 0z" fill="rgba(255, 255, 255, .075)"></path><path d="M632.62 0L1440 242.62L1440 352.37L329.61 0z" fill="rgba(255, 255, 255, .05)"></path><path d="M329.6100000000001 0L1440 352.37L1440 460.76L192.36000000000013 0z" fill="rgba(255, 255, 255, .025)"></path><path d="M0 560L576.06 560L0 380.77z" fill="rgba(0, 0, 0, .1)"></path><path d="M0 380.77L576.06 560L683.9799999999999 560L0 192.32999999999998z" fill="rgba(0, 0, 0, .075)"></path><path d="M0 192.33000000000004L683.9799999999999 560L1131.2599999999998 560L0 100.81000000000004z" fill="rgba(0, 0, 0, .05)"></path><path d="M0 100.81000000000006L1131.2599999999998 560L1328.8499999999997 560L0 64.32000000000005z" fill="rgba(0, 0, 0, .025)"></path></g><defs><mask id="SvgjsMask1007"><rect width="1440" height="560" fill="#ffffff"></rect></mask></defs></svg>